Verenigde Staten
Animatie / Avontuur
98 minuten

Alternatieve titel: How to Train Your Dragon 

geregisseerd door Dean DeBlois en Chris Sanders
met de stemmen van Jay Baruchel, Gerard Butler en America Ferrera

De jonge viking Hiccup woont op het eiland Berk, waar draken bevechten een manier van leven is. De intelligentie en de eigenwijze humor van de tiener vallen niet in goede aarde bij de stamleden en het stamhoofd... dat niemand minder is dan de vader van Hiccup. Maar wanneer Hiccup samen met andere Vikingjongens drakentraining krijgt, ziet hij zijn kans schoon om te bewijzen dat hij uit het goede hout gesneden is om krijger te worden. Wanneer hij echter een gewonde draak ontmoet, wordt zijn wereld ondersteboven gegooid, en wat begon als de enige gelegenheid voor Hiccup om zichzelf te bewijzen, verandert in een kans op een nieuwe toekomst voor de hele stam...
 
http://www.imdb.com/title/tt0892769/
 
http://www.moviemeter.nl/film/52147

Nederlands gesproken.

Hoesjes bijgevoegd.

General
Complete name                    : Hoe tem je een Draak-AC3-XviD-DVDRip[Ned]2010 2Lions-Team\Hoe tem je een Draak-AC3-XviD-DVDRip[Ned]2010 2Lions-Team.avi
Format                           : AVI
Format/Info                      : Audio Video Interleave
File size                        : 1.36 GiB
Duration                         : 1h 33mn
Overall bit rate                 : 2 078 Kbps
Writing application              : VirtualDubMod 1.5.4.1 (build 2178/release)
Writing library                  : VirtualDubMod build 2178/release

Video
ID                               : 0
Format                           : MPEG-4 Visual
Format profile                   : Simple@L3
Format settings, BVOP            : No
Format settings, QPel            : No
Format settings, GMC             : No warppoints
Format settings, Matrix          : Default (H.263)
Codec ID                         : XVID
Codec ID/Hint                    : XviD
Duration                         : 1h 33mn
Bit rate                         : 1 620 Kbps
Width                            : 720 pixels
Height                           : 304 pixels
Display aspect ratio             : 2.35:1
Frame rate                       : 25.000 fps
Color space                      : YUV
Chroma subsampling               : 4:2:0
Bit depth                        : 8 bits
Scan type                        : Progressive
Bits/(Pixel*Frame)               : 0.296
Stream size                      : 1.06 GiB (78%)
Writing library                  : XviD 1.1.2 (UTC 2006-11-01)

Audio
ID                               : 1
Format                           : AC-3
Format/Info                      : Audio Coding 3
Mode extension                   : CM (complete main)
Codec ID                         : 2000
Duration                         : 1h 33mn
Bit rate mode                    : Constant
Bit rate                         : 448 Kbps
Channel(s)                       : 6 channels
Channel positions                : Front: L C R, Side: L R, LFE
Sampling rate                    : 48.0 KHz
Bit depth                        : 16 bits
Stream size                      : 301 MiB (22%)
Alignment                        : Split accross interleaves
Interleave, duration             : 40 ms (1.00 video frame)
Interleave, preload duration     : 500 ms

Met dank aan drentje voor de bron!

Brought to you by Gollum

DON T HIT AND RUN Niet gelijk afhaken als de FILM binnen is blijf seeden. 

Don`t quit after you finished the download, but keep seeding

There are fake torrents from uploaders who use our team name.
Those are not ours, or members from our team.
We 2Lions-Team are not responsible for the fake posts on our name

Wij 2Lions-Team zijn niet verantwoordelijk voor die zieke FAKE posten die op onze naam worden gedaan

Please check our site !!!

to the fakers , get a life !!!